<mxfile host="app.diagrams.net" agent="Mozilla/5.0 (Windows NT 10.0; Win64; x64) AppleWebKit/537.36 (KHTML, like Gecko) Chrome/134.0.0.0 Whale/4.31.304.16 Safari/537.36" version="27.1.4">
  <diagram name="페이지-1" id="6oO_Q846ZIqZzXxWZ5Lk">
    <mxGraphModel dx="1405" dy="1165" grid="1" gridSize="10" guides="1" tooltips="1" connect="1" arrows="1" fold="0" page="1" pageScale="1" pageWidth="1600" pageHeight="900" math="0" shadow="0">
      <root>
        <mxCell id="0" />
        <mxCell id="1" parent="0" />
        <mxCell id="RrA8LpLHZFkUE0jM0ySk-42" value="" style="rounded=1;arcSize=10;dashed=1;strokeColor=#F59D56;fillColor=none;gradientColor=none;dashPattern=8 4;strokeWidth=2;" vertex="1" parent="1">
          <mxGeometry x="208.25" y="410" width="140" height="437.25" as="geometry" />
        </mxCell>
        <mxCell id="ey847-6ZclXoTTAayA36-7" value="" style="group" parent="1" vertex="1" connectable="0">
          <mxGeometry x="340" y="26.25" width="76.5" height="135.5" as="geometry" />
        </mxCell>
        <mxCell id="ey847-6ZclXoTTAayA36-3" value="" style="outlineConnect=0;dashed=0;verticalLabelPosition=bottom;verticalAlign=top;align=center;html=1;shape=mxgraph.aws3.elastic_load_balancing;fillColor=#F58534;gradientColor=none;" parent="ey847-6ZclXoTTAayA36-7" vertex="1">
          <mxGeometry width="76.5" height="93" as="geometry" />
        </mxCell>
        <mxCell id="ey847-6ZclXoTTAayA36-6" value="ELB" style="text;html=1;align=center;verticalAlign=middle;resizable=0;points=[];autosize=1;strokeColor=none;fillColor=none;" parent="ey847-6ZclXoTTAayA36-7" vertex="1">
          <mxGeometry x="13.25" y="105.5" width="50" height="30" as="geometry" />
        </mxCell>
        <mxCell id="ey847-6ZclXoTTAayA36-9" value="" style="group" parent="1" vertex="1" connectable="0">
          <mxGeometry x="60" y="30" width="70.5" height="128" as="geometry" />
        </mxCell>
        <mxCell id="ey847-6ZclXoTTAayA36-1" value="" style="outlineConnect=0;dashed=0;verticalLabelPosition=bottom;verticalAlign=top;align=center;html=1;shape=mxgraph.aws3.route_53;fillColor=#F58536;gradientColor=none;" parent="ey847-6ZclXoTTAayA36-9" vertex="1">
          <mxGeometry width="70.5" height="85.5" as="geometry" />
        </mxCell>
        <mxCell id="ey847-6ZclXoTTAayA36-8" value="Route 53" style="text;html=1;align=center;verticalAlign=middle;resizable=0;points=[];autosize=1;strokeColor=none;fillColor=none;" parent="ey847-6ZclXoTTAayA36-9" vertex="1">
          <mxGeometry x="0.5" y="98" width="70" height="30" as="geometry" />
        </mxCell>
        <mxCell id="ey847-6ZclXoTTAayA36-11" value="ccc" style="group" parent="1" vertex="1" connectable="0">
          <mxGeometry x="470" y="26.25" width="76.5" height="135.5" as="geometry" />
        </mxCell>
        <mxCell id="ey847-6ZclXoTTAayA36-5" value="" style="outlineConnect=0;dashed=0;verticalLabelPosition=bottom;verticalAlign=top;align=center;html=1;shape=mxgraph.aws3.ec2;fillColor=#F58534;gradientColor=none;" parent="ey847-6ZclXoTTAayA36-11" vertex="1">
          <mxGeometry width="76.5" height="93" as="geometry" />
        </mxCell>
        <mxCell id="ey847-6ZclXoTTAayA36-10" value="EC2" style="text;html=1;align=center;verticalAlign=middle;resizable=0;points=[];autosize=1;strokeColor=none;fillColor=none;" parent="ey847-6ZclXoTTAayA36-11" vertex="1">
          <mxGeometry x="13.25" y="105.5" width="50" height="30" as="geometry" />
        </mxCell>
        <mxCell id="ey847-6ZclXoTTAayA36-14" value="" style="group" parent="1" vertex="1" connectable="0">
          <mxGeometry x="910" y="37.75" width="70" height="128" as="geometry" />
        </mxCell>
        <mxCell id="ey847-6ZclXoTTAayA36-4" value="" style="outlineConnect=0;dashed=0;verticalLabelPosition=bottom;verticalAlign=top;align=center;html=1;shape=mxgraph.aws3.lambda_function;fillColor=#F58534;gradientColor=none;" parent="ey847-6ZclXoTTAayA36-14" vertex="1">
          <mxGeometry y="10" width="69" height="72" as="geometry" />
        </mxCell>
        <mxCell id="ey847-6ZclXoTTAayA36-12" value="Lambda" style="text;html=1;align=center;verticalAlign=middle;resizable=0;points=[];autosize=1;strokeColor=none;fillColor=none;" parent="ey847-6ZclXoTTAayA36-14" vertex="1">
          <mxGeometry y="90" width="70" height="30" as="geometry" />
        </mxCell>
        <mxCell id="ey847-6ZclXoTTAayA36-19" value="" style="group" parent="1" vertex="1" connectable="0">
          <mxGeometry x="800" y="47.75" width="90" height="88" as="geometry" />
        </mxCell>
        <mxCell id="ey847-6ZclXoTTAayA36-17" value="" style="points=[];aspect=fixed;html=1;align=center;shadow=0;dashed=0;fillColor=#FF6A00;strokeColor=none;shape=mxgraph.alibaba_cloud.apigateway;" parent="ey847-6ZclXoTTAayA36-19" vertex="1">
          <mxGeometry x="23.400000000000006" width="43.199999999999996" height="41.699999999999996" as="geometry" />
        </mxCell>
        <mxCell id="ey847-6ZclXoTTAayA36-18" value="API Gateway" style="text;html=1;align=center;verticalAlign=middle;resizable=0;points=[];autosize=1;strokeColor=none;fillColor=none;" parent="ey847-6ZclXoTTAayA36-19" vertex="1">
          <mxGeometry y="58" width="90" height="30" as="geometry" />
        </mxCell>
        <mxCell id="ey847-6ZclXoTTAayA36-20" value="" style="group" parent="1" vertex="1" connectable="0">
          <mxGeometry x="600" y="21.75" width="80" height="140" as="geometry" />
        </mxCell>
        <mxCell id="ey847-6ZclXoTTAayA36-15" value="" style="outlineConnect=0;dashed=0;verticalLabelPosition=bottom;verticalAlign=top;align=center;html=1;shape=mxgraph.aws3.cloudfront;fillColor=#F58536;gradientColor=none;" parent="ey847-6ZclXoTTAayA36-20" vertex="1">
          <mxGeometry x="1.75" width="76.5" height="93" as="geometry" />
        </mxCell>
        <mxCell id="ey847-6ZclXoTTAayA36-16" value="CloudFront" style="text;html=1;align=center;verticalAlign=middle;resizable=0;points=[];autosize=1;strokeColor=none;fillColor=none;" parent="ey847-6ZclXoTTAayA36-20" vertex="1">
          <mxGeometry y="110" width="80" height="30" as="geometry" />
        </mxCell>
        <mxCell id="ey847-6ZclXoTTAayA36-23" value="" style="group" parent="1" vertex="1" connectable="0">
          <mxGeometry x="160" y="18" width="76.5" height="140" as="geometry" />
        </mxCell>
        <mxCell id="ey847-6ZclXoTTAayA36-21" value="" style="outlineConnect=0;dashed=0;verticalLabelPosition=bottom;verticalAlign=top;align=center;html=1;shape=mxgraph.aws3.cognito;fillColor=#AD688B;gradientColor=none;" parent="ey847-6ZclXoTTAayA36-23" vertex="1">
          <mxGeometry width="76.5" height="93" as="geometry" />
        </mxCell>
        <mxCell id="ey847-6ZclXoTTAayA36-22" value="Cognito" style="text;html=1;align=center;verticalAlign=middle;resizable=0;points=[];autosize=1;strokeColor=none;fillColor=none;" parent="ey847-6ZclXoTTAayA36-23" vertex="1">
          <mxGeometry x="8.25" y="110" width="60" height="30" as="geometry" />
        </mxCell>
        <mxCell id="ey847-6ZclXoTTAayA36-28" value="" style="group" parent="1" vertex="1" connectable="0">
          <mxGeometry x="1010" y="41.75" width="72" height="128" as="geometry" />
        </mxCell>
        <mxCell id="ey847-6ZclXoTTAayA36-24" value="" style="outlineConnect=0;dashed=0;verticalLabelPosition=bottom;verticalAlign=top;align=center;html=1;shape=mxgraph.aws3.rds;fillColor=#2E73B8;gradientColor=none;" parent="ey847-6ZclXoTTAayA36-28" vertex="1">
          <mxGeometry width="72" height="81" as="geometry" />
        </mxCell>
        <mxCell id="ey847-6ZclXoTTAayA36-25" value="RDS" style="text;html=1;align=center;verticalAlign=middle;resizable=0;points=[];autosize=1;strokeColor=none;fillColor=none;" parent="ey847-6ZclXoTTAayA36-28" vertex="1">
          <mxGeometry x="5" y="98" width="50" height="30" as="geometry" />
        </mxCell>
        <mxCell id="ey847-6ZclXoTTAayA36-31" value="" style="group" parent="1" vertex="1" connectable="0">
          <mxGeometry x="1110" y="37.75" width="80" height="128" as="geometry" />
        </mxCell>
        <mxCell id="ey847-6ZclXoTTAayA36-29" value="" style="outlineConnect=0;dashed=0;verticalLabelPosition=bottom;verticalAlign=top;align=center;html=1;shape=mxgraph.aws3.dynamo_db;fillColor=#2E73B8;gradientColor=none;" parent="ey847-6ZclXoTTAayA36-31" vertex="1">
          <mxGeometry x="4" width="72" height="81" as="geometry" />
        </mxCell>
        <mxCell id="ey847-6ZclXoTTAayA36-30" value="DynamoDB" style="text;html=1;align=center;verticalAlign=middle;resizable=0;points=[];autosize=1;strokeColor=none;fillColor=none;" parent="ey847-6ZclXoTTAayA36-31" vertex="1">
          <mxGeometry y="98" width="80" height="30" as="geometry" />
        </mxCell>
        <mxCell id="ey847-6ZclXoTTAayA36-37" value="" style="group" parent="1" vertex="1" connectable="0">
          <mxGeometry x="1210" y="31.75" width="90" height="140" as="geometry" />
        </mxCell>
        <mxCell id="ey847-6ZclXoTTAayA36-35" value="CloudWatch" style="text;html=1;align=center;verticalAlign=middle;resizable=0;points=[];autosize=1;strokeColor=none;fillColor=none;" parent="ey847-6ZclXoTTAayA36-37" vertex="1">
          <mxGeometry y="110" width="90" height="30" as="geometry" />
        </mxCell>
        <mxCell id="ey847-6ZclXoTTAayA36-36" value="" style="outlineConnect=0;dashed=0;verticalLabelPosition=bottom;verticalAlign=top;align=center;html=1;shape=mxgraph.aws3.cloudwatch;fillColor=#759C3E;gradientColor=none;" parent="ey847-6ZclXoTTAayA36-37" vertex="1">
          <mxGeometry x="3.75" width="82.5" height="93" as="geometry" />
        </mxCell>
        <mxCell id="ey847-6ZclXoTTAayA36-40" value="" style="group" parent="1" vertex="1" connectable="0">
          <mxGeometry x="638" y="442.5" width="42" height="120" as="geometry" />
        </mxCell>
        <mxCell id="ey847-6ZclXoTTAayA36-38" value="" style="outlineConnect=0;dashed=0;verticalLabelPosition=bottom;verticalAlign=top;align=center;html=1;shape=mxgraph.aws3.iam;fillColor=#759C3E;gradientColor=none;" parent="ey847-6ZclXoTTAayA36-40" vertex="1">
          <mxGeometry x="1" y="9" width="42" height="81" as="geometry" />
        </mxCell>
        <mxCell id="ey847-6ZclXoTTAayA36-39" value="IAM" style="text;html=1;align=center;verticalAlign=middle;resizable=0;points=[];autosize=1;strokeColor=none;fillColor=none;" parent="ey847-6ZclXoTTAayA36-40" vertex="1">
          <mxGeometry x="1" y="90" width="40" height="30" as="geometry" />
        </mxCell>
        <mxCell id="RrA8LpLHZFkUE0jM0ySk-1" value="" style="group" vertex="1" connectable="0" parent="1">
          <mxGeometry x="100" y="450" width="70.5" height="128" as="geometry" />
        </mxCell>
        <mxCell id="RrA8LpLHZFkUE0jM0ySk-2" value="" style="outlineConnect=0;dashed=0;verticalLabelPosition=bottom;verticalAlign=top;align=center;html=1;shape=mxgraph.aws3.route_53;fillColor=#F58536;gradientColor=none;" vertex="1" parent="RrA8LpLHZFkUE0jM0ySk-1">
          <mxGeometry width="70.5" height="85.5" as="geometry" />
        </mxCell>
        <mxCell id="RrA8LpLHZFkUE0jM0ySk-3" value="Route 53" style="text;html=1;align=center;verticalAlign=middle;resizable=0;points=[];autosize=1;strokeColor=none;fillColor=none;" vertex="1" parent="RrA8LpLHZFkUE0jM0ySk-1">
          <mxGeometry x="0.5" y="98" width="70" height="30" as="geometry" />
        </mxCell>
        <mxCell id="RrA8LpLHZFkUE0jM0ySk-9" value="" style="group" vertex="1" connectable="0" parent="1">
          <mxGeometry x="1340" y="30" width="76.5" height="140" as="geometry" />
        </mxCell>
        <mxCell id="RrA8LpLHZFkUE0jM0ySk-7" value="" style="outlineConnect=0;dashed=0;verticalLabelPosition=bottom;verticalAlign=top;align=center;html=1;shape=mxgraph.aws3.s3;fillColor=#E05243;gradientColor=none;" vertex="1" parent="RrA8LpLHZFkUE0jM0ySk-9">
          <mxGeometry width="76.5" height="93" as="geometry" />
        </mxCell>
        <mxCell id="RrA8LpLHZFkUE0jM0ySk-8" value="S3" style="text;html=1;align=center;verticalAlign=middle;resizable=0;points=[];autosize=1;strokeColor=none;fillColor=none;" vertex="1" parent="RrA8LpLHZFkUE0jM0ySk-9">
          <mxGeometry x="18.25" y="110" width="40" height="30" as="geometry" />
        </mxCell>
        <mxCell id="RrA8LpLHZFkUE0jM0ySk-10" value="" style="group" vertex="1" connectable="0" parent="1">
          <mxGeometry x="1171.75" y="650" width="76.5" height="140" as="geometry" />
        </mxCell>
        <mxCell id="RrA8LpLHZFkUE0jM0ySk-11" value="" style="outlineConnect=0;dashed=0;verticalLabelPosition=bottom;verticalAlign=top;align=center;html=1;shape=mxgraph.aws3.s3;fillColor=#E05243;gradientColor=none;" vertex="1" parent="RrA8LpLHZFkUE0jM0ySk-10">
          <mxGeometry width="76.5" height="93" as="geometry" />
        </mxCell>
        <mxCell id="RrA8LpLHZFkUE0jM0ySk-12" value="S3" style="text;html=1;align=center;verticalAlign=middle;resizable=0;points=[];autosize=1;strokeColor=none;fillColor=none;" vertex="1" parent="RrA8LpLHZFkUE0jM0ySk-10">
          <mxGeometry x="18.25" y="110" width="40" height="30" as="geometry" />
        </mxCell>
        <mxCell id="RrA8LpLHZFkUE0jM0ySk-13" value="" style="group" vertex="1" connectable="0" parent="1">
          <mxGeometry x="780" y="640" width="90" height="88" as="geometry" />
        </mxCell>
        <mxCell id="RrA8LpLHZFkUE0jM0ySk-14" value="" style="points=[];aspect=fixed;html=1;align=center;shadow=0;dashed=0;fillColor=#FF6A00;strokeColor=none;shape=mxgraph.alibaba_cloud.apigateway;" vertex="1" parent="RrA8LpLHZFkUE0jM0ySk-13">
          <mxGeometry x="23.400000000000006" width="43.199999999999996" height="41.699999999999996" as="geometry" />
        </mxCell>
        <mxCell id="RrA8LpLHZFkUE0jM0ySk-15" value="API Gateway" style="text;html=1;align=center;verticalAlign=middle;resizable=0;points=[];autosize=1;strokeColor=none;fillColor=none;" vertex="1" parent="RrA8LpLHZFkUE0jM0ySk-13">
          <mxGeometry y="58" width="90" height="30" as="geometry" />
        </mxCell>
        <mxCell id="RrA8LpLHZFkUE0jM0ySk-16" value="" style="group" vertex="1" connectable="0" parent="1">
          <mxGeometry x="240" y="445.5" width="76.5" height="135.5" as="geometry" />
        </mxCell>
        <mxCell id="RrA8LpLHZFkUE0jM0ySk-77" style="rounded=0;orthogonalLoop=1;jettySize=auto;html=1;" edge="1" parent="RrA8LpLHZFkUE0jM0ySk-16" source="RrA8LpLHZFkUE0jM0ySk-17">
          <mxGeometry relative="1" as="geometry">
            <mxPoint x="170" y="-15.5" as="targetPoint" />
          </mxGeometry>
        </mxCell>
        <mxCell id="RrA8LpLHZFkUE0jM0ySk-78" style="rounded=0;orthogonalLoop=1;jettySize=auto;html=1;" edge="1" parent="RrA8LpLHZFkUE0jM0ySk-16" source="RrA8LpLHZFkUE0jM0ySk-17">
          <mxGeometry relative="1" as="geometry">
            <mxPoint x="170" y="104.5" as="targetPoint" />
          </mxGeometry>
        </mxCell>
        <mxCell id="RrA8LpLHZFkUE0jM0ySk-17" value="" style="outlineConnect=0;dashed=0;verticalLabelPosition=bottom;verticalAlign=top;align=center;html=1;shape=mxgraph.aws3.elastic_load_balancing;fillColor=#F58534;gradientColor=none;" vertex="1" parent="RrA8LpLHZFkUE0jM0ySk-16">
          <mxGeometry width="76.5" height="93" as="geometry" />
        </mxCell>
        <mxCell id="RrA8LpLHZFkUE0jM0ySk-18" value="ELB" style="text;html=1;align=center;verticalAlign=middle;resizable=0;points=[];autosize=1;strokeColor=none;fillColor=none;" vertex="1" parent="RrA8LpLHZFkUE0jM0ySk-16">
          <mxGeometry x="13.25" y="105.5" width="50" height="30" as="geometry" />
        </mxCell>
        <mxCell id="RrA8LpLHZFkUE0jM0ySk-19" value="ccc" style="group" vertex="1" connectable="0" parent="1">
          <mxGeometry x="450" y="445.5" width="76.5" height="135.5" as="geometry" />
        </mxCell>
        <mxCell id="RrA8LpLHZFkUE0jM0ySk-20" value="" style="outlineConnect=0;dashed=0;verticalLabelPosition=bottom;verticalAlign=top;align=center;html=1;shape=mxgraph.aws3.ec2;fillColor=#F58534;gradientColor=none;" vertex="1" parent="RrA8LpLHZFkUE0jM0ySk-19">
          <mxGeometry width="76.5" height="93" as="geometry" />
        </mxCell>
        <mxCell id="RrA8LpLHZFkUE0jM0ySk-21" value="EC2" style="text;html=1;align=center;verticalAlign=middle;resizable=0;points=[];autosize=1;strokeColor=none;fillColor=none;" vertex="1" parent="RrA8LpLHZFkUE0jM0ySk-19">
          <mxGeometry x="13.25" y="105.5" width="50" height="30" as="geometry" />
        </mxCell>
        <mxCell id="RrA8LpLHZFkUE0jM0ySk-22" value="" style="group" vertex="1" connectable="0" parent="1">
          <mxGeometry x="916.5" y="620" width="70" height="128" as="geometry" />
        </mxCell>
        <mxCell id="RrA8LpLHZFkUE0jM0ySk-23" value="" style="outlineConnect=0;dashed=0;verticalLabelPosition=bottom;verticalAlign=top;align=center;html=1;shape=mxgraph.aws3.lambda_function;fillColor=#F58534;gradientColor=none;" vertex="1" parent="RrA8LpLHZFkUE0jM0ySk-22">
          <mxGeometry y="4.85" width="69" height="72" as="geometry" />
        </mxCell>
        <mxCell id="RrA8LpLHZFkUE0jM0ySk-24" value="Lambda" style="text;html=1;align=center;verticalAlign=middle;resizable=0;points=[];autosize=1;strokeColor=none;fillColor=none;" vertex="1" parent="RrA8LpLHZFkUE0jM0ySk-22">
          <mxGeometry y="90" width="70" height="30" as="geometry" />
        </mxCell>
        <mxCell id="RrA8LpLHZFkUE0jM0ySk-28" value="" style="group" vertex="1" connectable="0" parent="1">
          <mxGeometry x="1174" y="360" width="72" height="128" as="geometry" />
        </mxCell>
        <mxCell id="RrA8LpLHZFkUE0jM0ySk-29" value="" style="outlineConnect=0;dashed=0;verticalLabelPosition=bottom;verticalAlign=top;align=center;html=1;shape=mxgraph.aws3.rds;fillColor=#2E73B8;gradientColor=none;" vertex="1" parent="RrA8LpLHZFkUE0jM0ySk-28">
          <mxGeometry width="72" height="81" as="geometry" />
        </mxCell>
        <mxCell id="RrA8LpLHZFkUE0jM0ySk-30" value="RDS" style="text;html=1;align=center;verticalAlign=middle;resizable=0;points=[];autosize=1;strokeColor=none;fillColor=none;" vertex="1" parent="RrA8LpLHZFkUE0jM0ySk-28">
          <mxGeometry x="11" y="98" width="50" height="30" as="geometry" />
        </mxCell>
        <mxCell id="RrA8LpLHZFkUE0jM0ySk-31" value="" style="group" vertex="1" connectable="0" parent="1">
          <mxGeometry x="630" y="720" width="90" height="140" as="geometry" />
        </mxCell>
        <mxCell id="RrA8LpLHZFkUE0jM0ySk-32" value="CloudWatch" style="text;html=1;align=center;verticalAlign=middle;resizable=0;points=[];autosize=1;strokeColor=none;fillColor=none;" vertex="1" parent="RrA8LpLHZFkUE0jM0ySk-31">
          <mxGeometry y="110" width="90" height="30" as="geometry" />
        </mxCell>
        <mxCell id="RrA8LpLHZFkUE0jM0ySk-33" value="" style="outlineConnect=0;dashed=0;verticalLabelPosition=bottom;verticalAlign=top;align=center;html=1;shape=mxgraph.aws3.cloudwatch;fillColor=#759C3E;gradientColor=none;" vertex="1" parent="RrA8LpLHZFkUE0jM0ySk-31">
          <mxGeometry x="3.75" width="82.5" height="93" as="geometry" />
        </mxCell>
        <mxCell id="RrA8LpLHZFkUE0jM0ySk-34" value="" style="group" vertex="1" connectable="0" parent="1">
          <mxGeometry x="786.75" y="322" width="76.5" height="135.5" as="geometry" />
        </mxCell>
        <mxCell id="RrA8LpLHZFkUE0jM0ySk-35" value="" style="outlineConnect=0;dashed=0;verticalLabelPosition=bottom;verticalAlign=top;align=center;html=1;shape=mxgraph.aws3.elastic_load_balancing;fillColor=#F58534;gradientColor=none;" vertex="1" parent="RrA8LpLHZFkUE0jM0ySk-34">
          <mxGeometry width="76.5" height="93" as="geometry" />
        </mxCell>
        <mxCell id="RrA8LpLHZFkUE0jM0ySk-36" value="ELB" style="text;html=1;align=center;verticalAlign=middle;resizable=0;points=[];autosize=1;strokeColor=none;fillColor=none;" vertex="1" parent="RrA8LpLHZFkUE0jM0ySk-34">
          <mxGeometry x="13.25" y="105.5" width="50" height="30" as="geometry" />
        </mxCell>
        <mxCell id="RrA8LpLHZFkUE0jM0ySk-37" value="ccc" style="group" vertex="1" connectable="0" parent="1">
          <mxGeometry x="910" y="315" width="76.5" height="135.5" as="geometry" />
        </mxCell>
        <mxCell id="RrA8LpLHZFkUE0jM0ySk-38" value="" style="outlineConnect=0;dashed=0;verticalLabelPosition=bottom;verticalAlign=top;align=center;html=1;shape=mxgraph.aws3.ec2;fillColor=#F58534;gradientColor=none;" vertex="1" parent="RrA8LpLHZFkUE0jM0ySk-37">
          <mxGeometry y="7" width="76.5" height="93" as="geometry" />
        </mxCell>
        <mxCell id="RrA8LpLHZFkUE0jM0ySk-39" value="EC2" style="text;html=1;align=center;verticalAlign=middle;resizable=0;points=[];autosize=1;strokeColor=none;fillColor=none;" vertex="1" parent="RrA8LpLHZFkUE0jM0ySk-37">
          <mxGeometry x="13.25" y="105.5" width="50" height="30" as="geometry" />
        </mxCell>
        <mxCell id="RrA8LpLHZFkUE0jM0ySk-40" style="edgeStyle=orthogonalEdgeStyle;rounded=0;orthogonalLoop=1;jettySize=auto;html=1;" edge="1" parent="1" source="RrA8LpLHZFkUE0jM0ySk-2" target="RrA8LpLHZFkUE0jM0ySk-17">
          <mxGeometry relative="1" as="geometry" />
        </mxCell>
        <mxCell id="RrA8LpLHZFkUE0jM0ySk-41" style="edgeStyle=orthogonalEdgeStyle;rounded=0;orthogonalLoop=1;jettySize=auto;html=1;entryX=0;entryY=0.5;entryDx=0;entryDy=0;entryPerimeter=0;" edge="1" parent="1" source="RrA8LpLHZFkUE0jM0ySk-17" target="RrA8LpLHZFkUE0jM0ySk-20">
          <mxGeometry relative="1" as="geometry" />
        </mxCell>
        <mxCell id="RrA8LpLHZFkUE0jM0ySk-44" value="" style="group" vertex="1" connectable="0" parent="1">
          <mxGeometry x="240" y="593.37" width="76.5" height="106.63" as="geometry" />
        </mxCell>
        <mxCell id="RrA8LpLHZFkUE0jM0ySk-27" value="" style="outlineConnect=0;dashed=0;verticalLabelPosition=bottom;verticalAlign=top;align=center;html=1;shape=mxgraph.aws3.shield;fillColor=#759C3E;gradientColor=none;" vertex="1" parent="RrA8LpLHZFkUE0jM0ySk-44">
          <mxGeometry width="76.5" height="70.5" as="geometry" />
        </mxCell>
        <mxCell id="RrA8LpLHZFkUE0jM0ySk-43" value="Shield" style="text;html=1;align=center;verticalAlign=middle;resizable=0;points=[];autosize=1;strokeColor=none;fillColor=none;" vertex="1" parent="RrA8LpLHZFkUE0jM0ySk-44">
          <mxGeometry x="8.25" y="76.63" width="60" height="30" as="geometry" />
        </mxCell>
        <mxCell id="RrA8LpLHZFkUE0jM0ySk-46" value="" style="group" vertex="1" connectable="0" parent="1">
          <mxGeometry x="240" y="710" width="76.5" height="130" as="geometry" />
        </mxCell>
        <mxCell id="RrA8LpLHZFkUE0jM0ySk-26" value="" style="outlineConnect=0;dashed=0;verticalLabelPosition=bottom;verticalAlign=top;align=center;html=1;shape=mxgraph.aws3.waf;fillColor=#759C3E;gradientColor=none;" vertex="1" parent="RrA8LpLHZFkUE0jM0ySk-46">
          <mxGeometry width="76.5" height="93" as="geometry" />
        </mxCell>
        <mxCell id="RrA8LpLHZFkUE0jM0ySk-45" value="WAF" style="text;html=1;align=center;verticalAlign=middle;resizable=0;points=[];autosize=1;strokeColor=none;fillColor=none;" vertex="1" parent="RrA8LpLHZFkUE0jM0ySk-46">
          <mxGeometry x="13.25" y="100" width="50" height="30" as="geometry" />
        </mxCell>
        <mxCell id="RrA8LpLHZFkUE0jM0ySk-47" value="" style="edgeStyle=orthogonalEdgeStyle;rounded=0;orthogonalLoop=1;jettySize=auto;html=1;" edge="1" parent="1" source="RrA8LpLHZFkUE0jM0ySk-20" target="ey847-6ZclXoTTAayA36-38">
          <mxGeometry relative="1" as="geometry" />
        </mxCell>
        <mxCell id="RrA8LpLHZFkUE0jM0ySk-48" value="" style="edgeStyle=orthogonalEdgeStyle;rounded=0;orthogonalLoop=1;jettySize=auto;html=1;entryX=0.015;entryY=0.511;entryDx=0;entryDy=0;entryPerimeter=0;" edge="1" parent="1" source="ey847-6ZclXoTTAayA36-38" target="RrA8LpLHZFkUE0jM0ySk-14">
          <mxGeometry relative="1" as="geometry">
            <Array as="points">
              <mxPoint x="740" y="492" />
              <mxPoint x="740" y="661" />
            </Array>
          </mxGeometry>
        </mxCell>
        <mxCell id="RrA8LpLHZFkUE0jM0ySk-49" style="edgeStyle=orthogonalEdgeStyle;rounded=0;orthogonalLoop=1;jettySize=auto;html=1;entryX=0;entryY=0.5;entryDx=0;entryDy=0;entryPerimeter=0;" edge="1" parent="1" source="ey847-6ZclXoTTAayA36-38" target="RrA8LpLHZFkUE0jM0ySk-35">
          <mxGeometry relative="1" as="geometry">
            <Array as="points">
              <mxPoint x="740" y="492" />
              <mxPoint x="740" y="368" />
            </Array>
          </mxGeometry>
        </mxCell>
        <mxCell id="RrA8LpLHZFkUE0jM0ySk-50" value="" style="edgeStyle=orthogonalEdgeStyle;rounded=0;orthogonalLoop=1;jettySize=auto;html=1;" edge="1" parent="1" source="RrA8LpLHZFkUE0jM0ySk-35" target="RrA8LpLHZFkUE0jM0ySk-38">
          <mxGeometry relative="1" as="geometry" />
        </mxCell>
        <mxCell id="RrA8LpLHZFkUE0jM0ySk-51" value="" style="edgeStyle=orthogonalEdgeStyle;rounded=0;orthogonalLoop=1;jettySize=auto;html=1;" edge="1" parent="1" source="RrA8LpLHZFkUE0jM0ySk-14" target="RrA8LpLHZFkUE0jM0ySk-23">
          <mxGeometry relative="1" as="geometry" />
        </mxCell>
        <mxCell id="RrA8LpLHZFkUE0jM0ySk-52" style="edgeStyle=orthogonalEdgeStyle;rounded=0;orthogonalLoop=1;jettySize=auto;html=1;entryX=0;entryY=0.5;entryDx=0;entryDy=0;entryPerimeter=0;" edge="1" parent="1" source="RrA8LpLHZFkUE0jM0ySk-23" target="RrA8LpLHZFkUE0jM0ySk-29">
          <mxGeometry relative="1" as="geometry" />
        </mxCell>
        <mxCell id="RrA8LpLHZFkUE0jM0ySk-53" style="edgeStyle=orthogonalEdgeStyle;rounded=0;orthogonalLoop=1;jettySize=auto;html=1;" edge="1" parent="1" source="RrA8LpLHZFkUE0jM0ySk-38" target="RrA8LpLHZFkUE0jM0ySk-29">
          <mxGeometry relative="1" as="geometry" />
        </mxCell>
        <mxCell id="RrA8LpLHZFkUE0jM0ySk-54" style="edgeStyle=orthogonalEdgeStyle;rounded=0;orthogonalLoop=1;jettySize=auto;html=1;entryX=0.5;entryY=1;entryDx=0;entryDy=0;entryPerimeter=0;" edge="1" parent="1" source="RrA8LpLHZFkUE0jM0ySk-33" target="RrA8LpLHZFkUE0jM0ySk-23">
          <mxGeometry relative="1" as="geometry">
            <Array as="points">
              <mxPoint x="951" y="766" />
            </Array>
          </mxGeometry>
        </mxCell>
        <mxCell id="RrA8LpLHZFkUE0jM0ySk-55" value="&lt;h1 style=&quot;margin-top: 0px;&quot;&gt;EC2 vs Lambda&lt;/h1&gt;&lt;p&gt;EC2 - 사용자 인증 및 로그인, 실시간 좌석 조회, 예약 시스템 및 사용자 인터페이스, 사용자 예약 내역 조회&lt;/p&gt;&lt;p&gt;Lambda - 좌석 예약 요청, 예약 알림 전송, 예약 취소 및 변경 처리, 예약 데이터 처리(로그,통계), 좌석 예약 현황 분석, 실시간 좌석 예약 대기열 관리, 시스템 유지보수(데이터 정리, 리소스 최적화)&lt;/p&gt;" style="text;html=1;whiteSpace=wrap;overflow=hidden;rounded=0;" vertex="1" parent="1">
          <mxGeometry x="716" y="172" width="334" height="138" as="geometry" />
        </mxCell>
        <mxCell id="RrA8LpLHZFkUE0jM0ySk-59" value="" style="group" vertex="1" connectable="0" parent="1">
          <mxGeometry x="260" y="20" width="42" height="120" as="geometry" />
        </mxCell>
        <mxCell id="RrA8LpLHZFkUE0jM0ySk-60" value="" style="outlineConnect=0;dashed=0;verticalLabelPosition=bottom;verticalAlign=top;align=center;html=1;shape=mxgraph.aws3.iam;fillColor=#759C3E;gradientColor=none;" vertex="1" parent="RrA8LpLHZFkUE0jM0ySk-59">
          <mxGeometry x="1" y="9" width="42" height="81" as="geometry" />
        </mxCell>
        <mxCell id="RrA8LpLHZFkUE0jM0ySk-61" value="IAM" style="text;html=1;align=center;verticalAlign=middle;resizable=0;points=[];autosize=1;strokeColor=none;fillColor=none;" vertex="1" parent="RrA8LpLHZFkUE0jM0ySk-59">
          <mxGeometry x="1" y="90" width="40" height="30" as="geometry" />
        </mxCell>
        <mxCell id="RrA8LpLHZFkUE0jM0ySk-62" value="" style="group" vertex="1" connectable="0" parent="1">
          <mxGeometry x="50" y="170" width="76.5" height="106.63" as="geometry" />
        </mxCell>
        <mxCell id="RrA8LpLHZFkUE0jM0ySk-63" value="" style="outlineConnect=0;dashed=0;verticalLabelPosition=bottom;verticalAlign=top;align=center;html=1;shape=mxgraph.aws3.shield;fillColor=#759C3E;gradientColor=none;" vertex="1" parent="RrA8LpLHZFkUE0jM0ySk-62">
          <mxGeometry width="76.5" height="70.5" as="geometry" />
        </mxCell>
        <mxCell id="RrA8LpLHZFkUE0jM0ySk-64" value="Shield" style="text;html=1;align=center;verticalAlign=middle;resizable=0;points=[];autosize=1;strokeColor=none;fillColor=none;" vertex="1" parent="RrA8LpLHZFkUE0jM0ySk-62">
          <mxGeometry x="8.25" y="76.63" width="60" height="30" as="geometry" />
        </mxCell>
        <mxCell id="RrA8LpLHZFkUE0jM0ySk-65" value="" style="group" vertex="1" connectable="0" parent="1">
          <mxGeometry x="160" y="161.75" width="76.5" height="130" as="geometry" />
        </mxCell>
        <mxCell id="RrA8LpLHZFkUE0jM0ySk-66" value="" style="outlineConnect=0;dashed=0;verticalLabelPosition=bottom;verticalAlign=top;align=center;html=1;shape=mxgraph.aws3.waf;fillColor=#759C3E;gradientColor=none;" vertex="1" parent="RrA8LpLHZFkUE0jM0ySk-65">
          <mxGeometry width="76.5" height="93" as="geometry" />
        </mxCell>
        <mxCell id="RrA8LpLHZFkUE0jM0ySk-67" value="WAF" style="text;html=1;align=center;verticalAlign=middle;resizable=0;points=[];autosize=1;strokeColor=none;fillColor=none;" vertex="1" parent="RrA8LpLHZFkUE0jM0ySk-65">
          <mxGeometry x="13.25" y="100" width="50" height="30" as="geometry" />
        </mxCell>
        <mxCell id="RrA8LpLHZFkUE0jM0ySk-68" style="rounded=0;orthogonalLoop=1;jettySize=auto;html=1;exitX=1;exitY=0.5;exitDx=0;exitDy=0;exitPerimeter=0;entryX=0;entryY=0.5;entryDx=0;entryDy=0;entryPerimeter=0;elbow=vertical;" edge="1" parent="1" source="RrA8LpLHZFkUE0jM0ySk-38" target="RrA8LpLHZFkUE0jM0ySk-11">
          <mxGeometry relative="1" as="geometry" />
        </mxCell>
        <mxCell id="RrA8LpLHZFkUE0jM0ySk-71" value="" style="group" vertex="1" connectable="0" parent="1">
          <mxGeometry x="1170" y="510" width="80" height="128" as="geometry" />
        </mxCell>
        <mxCell id="RrA8LpLHZFkUE0jM0ySk-72" value="" style="outlineConnect=0;dashed=0;verticalLabelPosition=bottom;verticalAlign=top;align=center;html=1;shape=mxgraph.aws3.dynamo_db;fillColor=#2E73B8;gradientColor=none;" vertex="1" parent="RrA8LpLHZFkUE0jM0ySk-71">
          <mxGeometry x="4" width="72" height="81" as="geometry" />
        </mxCell>
        <mxCell id="RrA8LpLHZFkUE0jM0ySk-73" value="DynamoDB" style="text;html=1;align=center;verticalAlign=middle;resizable=0;points=[];autosize=1;strokeColor=none;fillColor=none;" vertex="1" parent="RrA8LpLHZFkUE0jM0ySk-71">
          <mxGeometry y="98" width="80" height="30" as="geometry" />
        </mxCell>
        <mxCell id="RrA8LpLHZFkUE0jM0ySk-74" style="edgeStyle=orthogonalEdgeStyle;rounded=0;orthogonalLoop=1;jettySize=auto;html=1;entryX=0;entryY=0.5;entryDx=0;entryDy=0;entryPerimeter=0;" edge="1" parent="1" source="RrA8LpLHZFkUE0jM0ySk-38" target="RrA8LpLHZFkUE0jM0ySk-72">
          <mxGeometry relative="1" as="geometry" />
        </mxCell>
        <mxCell id="RrA8LpLHZFkUE0jM0ySk-75" value="사용자 인증 / 보안 관리" style="text;html=1;align=center;verticalAlign=middle;whiteSpace=wrap;rounded=0;" vertex="1" parent="1">
          <mxGeometry x="589.5" y="410" width="139" height="30" as="geometry" />
        </mxCell>
        <mxCell id="RrA8LpLHZFkUE0jM0ySk-76" style="rounded=0;orthogonalLoop=1;jettySize=auto;html=1;exitX=1;exitY=0.5;exitDx=0;exitDy=0;exitPerimeter=0;entryX=0;entryY=0.5;entryDx=0;entryDy=0;entryPerimeter=0;" edge="1" parent="1" source="RrA8LpLHZFkUE0jM0ySk-23" target="RrA8LpLHZFkUE0jM0ySk-11">
          <mxGeometry relative="1" as="geometry">
            <mxPoint x="1100" y="750" as="targetPoint" />
          </mxGeometry>
        </mxCell>
      </root>
    </mxGraphModel>
  </diagram>
</mxfile>
